# xmcd
#
# Track frame offsets: 
#        150
#        4927
#        23122
#        38584
#        51946
#        65286
#        79833
#        90960
#        102877
#        106804
#        123436
#        136666
#        158215
#        182708
#        194860
#        210819
#        235564
#        260319
#        267939
#        281997
#        295262
#        310202
#
# Disc length: 4436 seconds
#
# Revision: 0
# Processed by: cddbd v1.5.2PL0 Copyright (c) Steve Scherf et al.
# Submitted via: ExactAudioCopy v0.95b3
#
DISCID=28115216
DTITLE=Jimi Hendrix Experience  - At The Beeb {Audiophile Boot}  FLAC
DYEAR=1900
DGENRE=
TTITLE0=Jwb Remasters - Interview 1
TTITLE1=Jwb Remasters - Hey Joe
TTITLE2=Jwb Remasters - Stone Free
TTITLE3=Jwb Remasters - Love Or Confusion
TTITLE4=Jwb Remasters - Foxy Lady
TTITLE5=Jwb Remasters - Purple Haze
TTITLE6=Jwb Remasters - Killing Floor
TTITLE7=Jwb Remasters - Fire
TTITLE8=Jwb Remasters - Interview 2
TTITLE9=Jwb Remasters - Burning Of The Midnight Lamp
TTITLE10=Jwb Remasters - Little Miss Lover
TTITLE11=Jwb Remasters - Drivin' South 1
TTITLE12=Jwb Remasters - Catfish Blues
TTITLE13=Jwb Remasters - Hound Dog
TTITLE14=Jwb Remasters - Can You Please Crawl Out Your Window
TTITLE15=Jwb Remasters - Hoochie Coochie Man
TTITLE16=Jwb Remasters - Drivin' South 2
TTITLE17=Jwb Remasters - Radio One Theme
TTITLE18=Jwb Remasters - Spanish Castle Magic
TTITLE19=Jwb Remasters - Wait Until Tomorrow
TTITLE20=Jwb Remasters - Day Tripper
TTITLE21=Jwb Remasters - Hear My Train A Comin'
EXTD=
EXTT0=
EXTT1=
EXTT2=
EXTT3=
EXTT4=
EXTT5=
EXTT6=
EXTT7=
EXTT8=
EXTT9=
EXTT10=
EXTT11=
EXTT12=
EXTT13=
EXTT14=
EXTT15=
EXTT16=
EXTT17=
EXTT18=
EXTT19=
EXTT20=
EXTT21=
PLAYORDER=
